<svg width="1920" height="752" viewBox="0 0 1920 752" fill="none" xmlns="http://www.w3.org/2000/svg">
<g opacity="0.14">
<path d="M1470.49 506.009C1467.28 509.707 1462.16 510.632 1455.12 508.783C1448.08 507.304 1441.99 503.791 1436.87 498.244C1431.75 492.697 1430.47 486.226 1433.03 478.83C1449.04 446.659 1467.93 410.606 1489.7 370.669C1511.15 330.733 1533.88 293.939 1557.89 260.289C1581.9 226.639 1605.75 202.788 1629.44 188.737C1649.94 179.492 1669.3 181.711 1687.55 195.393C1705.48 209.444 1715.89 225.9 1718.77 244.759C1719.41 256.961 1717.97 272.862 1714.45 292.46C1710.93 312.429 1706.92 330.918 1702.44 347.928C1712.69 333.876 1724.21 316.681 1737.02 296.343C1760.39 256.407 1788.08 218.319 1820.1 182.08C1828.74 174.315 1841.07 172.651 1857.08 177.088C1873.09 181.526 1887.65 189.661 1900.78 201.494C1913.91 213.327 1920.31 226.454 1919.99 240.876C1914.23 298.192 1897.1 357.542 1868.6 418.926C1840.11 480.31 1808.57 528.011 1774 562.031C1754.79 579.041 1737.34 584.958 1721.65 579.781C1705.64 574.604 1689.47 565.174 1673.15 551.493C1667.38 547.055 1661.3 542.433 1654.9 537.626C1646.89 547.98 1638.89 558.703 1630.89 569.797C1625.44 577.932 1619.68 586.067 1613.6 594.202C1606.23 602.338 1595.99 604.002 1582.86 599.194C1569.42 594.387 1558.05 586.252 1548.77 574.789C1539.48 563.695 1537.08 552.602 1541.56 541.508C1583.5 456.828 1610.08 391.932 1621.28 346.818C1632.17 301.705 1632.65 278.963 1622.72 278.594C1597.43 280.442 1546.68 356.248 1470.49 506.009ZM1698.6 463.854C1696.68 467.182 1695.72 472.359 1695.72 479.385C1695.72 486.411 1696.84 492.882 1699.08 498.799C1701.32 505.085 1704.68 508.783 1709.16 509.892C1713.65 511.371 1719.41 508.043 1726.45 499.908C1754.95 464.779 1778.8 424.472 1798.01 378.989C1817.22 333.876 1827.46 301.705 1828.74 282.476C1813.06 297.637 1791.61 324.631 1764.39 363.458C1737.18 402.286 1715.25 435.751 1698.6 463.854Z" fill="#9F56FD"/>
<path d="M1203.47 499.353C1201.55 501.942 1198.67 502.497 1194.83 501.017C1190.99 499.908 1186.99 497.504 1182.82 493.807C1178.66 490.109 1175.46 486.226 1173.22 482.159C1170.66 478.461 1170.02 475.318 1171.3 472.729C1176.42 463.115 1182.18 451.836 1188.59 438.894C1203.63 408.572 1221.56 375.107 1242.37 338.498C1262.86 301.89 1285.44 268.609 1310.09 238.657C1334.74 209.075 1360.67 189.476 1387.89 179.862C1403.89 175.794 1422.62 177.458 1444.07 184.854C1465.52 192.249 1484.73 203.158 1501.7 217.58C1518.67 232.371 1528.28 248.271 1530.52 265.281C1533.08 305.588 1525.87 352.365 1508.91 405.614C1491.94 458.862 1470.01 506.749 1443.11 549.274C1415.9 591.799 1388.53 617.314 1360.99 625.819C1355.23 627.298 1349.79 626.928 1344.66 624.709C1339.54 622.491 1333.3 619.163 1325.94 614.725C1322.09 612.507 1317.61 609.918 1312.49 606.96C1311.21 609.179 1309.61 611.952 1307.69 615.28C1303.52 621.936 1299.36 628.407 1295.2 634.694C1291.04 641.35 1288 645.232 1286.08 646.342C1275.19 650.779 1263.34 648.56 1250.54 639.686C1237.41 630.811 1227.17 619.902 1219.8 606.96C1212.12 594.387 1210.84 584.773 1215.96 578.117C1240.93 551.123 1260.94 520.986 1275.99 487.705C1290.72 454.795 1296.32 429.465 1292.8 411.715C1296.96 406.538 1304.16 405.429 1314.41 408.387C1324.33 411.345 1333.94 417.632 1343.22 427.246C1352.19 437.23 1357.15 449.803 1358.11 464.964C1357.79 478.646 1354.59 495.101 1348.51 514.33C1342.1 533.558 1336.02 549.089 1330.26 560.922C1344.02 552.787 1358.91 531.894 1374.92 498.244C1390.61 464.594 1403.73 427.801 1414.3 387.864C1424.86 348.297 1429.35 315.017 1427.75 288.023C1425.82 261.399 1414.14 250.675 1392.69 255.852C1367.4 264.727 1341.94 286.729 1316.33 321.858C1290.72 356.987 1264.3 397.663 1237.09 443.886C1226.21 462.375 1215 480.864 1203.47 499.353Z" fill="#9F56FD"/>
<path d="M928.779 499.353C926.858 501.942 923.977 502.497 920.135 501.017C916.293 499.908 912.291 497.504 908.129 493.807C903.967 490.109 900.765 486.226 898.524 482.159C895.963 478.461 895.322 475.318 896.603 472.729C901.726 463.115 907.488 451.836 913.892 438.894C928.939 408.572 946.868 375.107 967.678 338.498C988.168 301.89 1010.74 268.609 1035.39 238.657C1060.04 209.075 1085.98 189.476 1113.19 179.862C1129.2 175.794 1147.93 177.458 1169.38 184.854C1190.83 192.25 1210.04 203.158 1227.01 217.58C1243.97 232.371 1253.58 248.271 1255.82 265.281C1258.38 305.588 1251.18 352.365 1234.21 405.614C1217.24 458.862 1195.31 506.749 1168.42 549.274C1141.2 591.799 1113.83 617.314 1086.3 625.819C1080.53 627.298 1075.09 626.928 1069.97 624.709C1064.85 622.491 1058.6 619.163 1051.24 614.725C1047.4 612.507 1042.92 609.918 1037.79 606.96C1036.51 609.179 1034.91 611.952 1032.99 615.28C1028.83 621.936 1024.67 628.407 1020.5 634.694C1016.34 641.35 1013.3 645.232 1011.38 646.342C1000.49 650.779 988.648 648.56 975.842 639.686C962.716 630.811 952.471 619.902 945.107 606.96C937.423 594.387 936.143 584.773 941.265 578.117C966.237 551.123 986.247 520.986 1001.29 487.705C1016.02 454.795 1021.62 429.465 1018.1 411.715C1022.27 406.538 1029.47 405.429 1039.71 408.387C1049.64 411.345 1059.24 417.632 1068.53 427.246C1077.49 437.23 1082.45 449.803 1083.42 464.964C1083.1 478.646 1079.89 495.101 1073.81 514.33C1067.41 533.558 1061.32 549.089 1055.56 560.922C1069.33 552.787 1084.22 531.894 1100.22 498.244C1115.91 464.594 1129.04 427.801 1139.6 387.864C1150.17 348.297 1154.65 315.017 1153.05 288.023C1151.13 261.399 1139.44 250.675 1117.99 255.852C1092.7 264.727 1067.25 286.729 1041.63 321.858C1016.02 356.987 989.609 397.663 962.396 443.886C951.51 462.375 940.305 480.864 928.779 499.353Z" fill="#9F56FD"/>
<path d="M434.135 659.654C396.676 637.837 367.382 613.431 346.251 586.437C324.801 559.813 317.917 519.322 325.601 464.964C330.403 439.079 340.488 400.807 355.856 350.146C369.943 302.814 383.229 253.818 395.716 203.158C408.202 152.868 414.445 110.158 414.445 75.0287C414.125 39.5297 402.439 20.4859 379.388 17.8974C387.391 1.62703 402.119 -3.54992 423.569 2.36659C444.7 7.91334 463.749 23.2593 480.718 48.4044C497.686 73.5496 503.449 107.015 498.006 148.8C486.801 205.007 469.672 268.055 446.621 337.944C432.854 380.838 422.289 416.707 414.925 445.55C404.68 484.377 402.919 516.548 409.642 542.063C416.366 567.948 435.255 587.546 466.311 600.859C466.951 532.449 485.84 451.836 522.978 359.021C559.797 266.206 601.577 202.234 648.32 167.104C661.127 159.709 677.615 158.784 697.785 164.331C717.635 169.878 736.044 179.677 753.012 193.729C769.66 207.78 779.745 223.681 783.267 241.431C786.148 271.013 782.947 307.067 773.662 349.592C784.228 335.17 796.073 317.421 809.2 296.343C834.492 253.818 863.627 213.697 896.603 175.979C905.567 168.214 918.214 166.55 934.542 170.987C950.87 175.424 965.597 183.745 978.724 195.947C992.17 208.15 998.733 221.462 998.413 235.884C992.65 294.309 975.202 354.769 946.067 417.262C917.253 479.755 885.077 528.381 849.54 563.141C830.01 580.521 812.241 586.437 796.234 580.89C779.905 575.713 763.577 566.099 747.249 552.047C741.166 547.61 734.923 542.988 728.52 538.18C725.639 542.988 722.277 548.904 718.435 555.93C714.593 562.586 710.751 569.057 706.909 575.344C703.067 581.63 699.706 586.622 696.824 590.32C688.82 598.455 678.255 599.749 665.129 594.202C651.682 589.026 640.477 580.705 631.512 569.242C622.228 557.779 619.986 546.501 624.789 535.407C663.528 459.972 686.899 395.26 694.903 341.272C702.587 287.653 701.787 255.852 692.502 245.868C681.617 238.103 664.648 250.675 641.597 283.586C618.226 316.866 596.135 359.021 575.324 410.051C554.514 461.081 542.188 509.892 538.346 556.485C534.184 603.077 546.03 635.988 573.884 655.216C581.888 661.133 584.289 670.562 581.087 683.505C577.886 696.447 571.643 709.205 562.358 721.777C552.753 734.72 542.828 743.779 532.583 748.956C522.018 754.503 513.534 752.469 507.131 742.855C502.328 734.72 498.326 727.694 495.125 721.777C489.682 710.684 483.279 700.7 475.915 691.825C468.231 682.95 454.305 672.226 434.135 659.654ZM776.544 462.19C774.943 465.518 773.983 470.695 773.662 477.721C773.022 485.117 773.662 491.958 775.583 498.244C777.184 504.9 780.065 508.783 784.228 509.892C788.39 511.371 794.152 508.043 801.516 499.908C830.33 464.039 854.502 422.993 874.032 376.771C893.561 330.548 903.967 297.637 905.247 278.039C889.88 293.57 868.909 320.934 842.336 360.13C815.443 399.697 793.512 433.717 776.544 462.19Z" fill="#9F56FD"/>
<path d="M13.927 340.162C7.52377 340.902 3.36178 337.389 1.44088 329.624C-0.48014 322.228 -0.480141 314.463 1.44088 306.327C3.04159 298.562 6.08309 294.125 10.5653 293.015C24.3321 290.796 37.7788 290.242 50.9052 291.351C64.0317 292.46 78.759 296.158 95.0871 302.445C96.3678 299.486 97.8084 296.158 99.4093 292.46C106.453 273.602 117.018 251.23 131.105 225.345C144.872 199.46 162.16 179.307 182.971 164.886C197.378 157.12 215.306 156.196 236.757 162.112C257.888 168.029 277.577 178.383 295.826 193.174C314.075 208.335 325.921 225.53 331.364 244.759C336.806 271.383 336.326 300.226 329.923 331.288C323.52 362.719 314.235 391.932 302.069 418.926C290.223 445.92 278.218 466.073 266.051 479.385C261.89 484.192 257.247 488.63 252.125 492.697C249.884 494.546 247.642 496.395 245.401 498.244C247.963 513.775 249.403 529.306 249.723 544.837C249.723 560.367 246.682 575.159 240.599 589.21C231.635 605.111 214.186 613.061 188.253 613.061C162 613.431 136.388 604.556 111.415 586.437C86.4429 568.318 71.2353 540.029 65.7926 501.572C63.2313 475.318 63.5515 449.618 66.7531 424.473C69.6345 399.697 73.9566 374.367 79.7194 348.482C73.3164 344.415 64.0317 341.272 51.8657 339.053C39.6997 337.204 27.0534 337.574 13.927 340.162ZM252.125 216.47C228.433 232.741 210.504 251.969 198.338 274.156C185.852 296.343 175.447 320.194 167.123 345.709C189.214 362.349 206.022 384.351 217.548 411.715C222.03 405.799 227.953 390.453 235.316 365.677C242.36 341.272 248.123 314.832 252.605 286.359C256.767 257.886 256.607 234.59 252.125 216.47ZM152.716 407.832C148.233 421.884 145.832 438.524 145.512 457.753C144.872 477.351 145.672 495.471 147.913 512.111C150.154 529.121 153.196 540.954 157.038 547.61C175.927 515.439 174.486 468.846 152.716 407.832Z" fill="#9F56FD"/>
</g>
</svg>
