<svg width="1920" height="669" viewBox="0 0 1920 669" fill="none" xmlns="http://www.w3.org/2000/svg">
<g opacity="0.14">
<path d="M1519.53 493.897C1515.51 497.507 1509.08 498.409 1500.24 496.604C1491.39 495.161 1483.75 491.732 1477.32 486.318C1470.89 480.904 1469.28 474.588 1472.49 467.369C1492.6 435.968 1516.32 400.777 1543.65 361.797C1570.59 322.816 1599.14 286.904 1629.29 254.059C1659.44 221.214 1689.39 197.934 1719.14 184.219C1744.87 175.196 1769.19 177.361 1792.11 190.716C1814.62 204.431 1827.69 220.492 1831.31 238.9C1832.11 250.811 1830.3 266.331 1825.88 285.46C1821.46 304.95 1816.43 322.997 1810.8 339.6C1823.67 325.884 1838.14 309.101 1854.22 289.25C1883.57 250.269 1918.35 213.093 1958.55 177.722C1969.41 170.143 1984.88 168.518 2004.99 172.85C2025.09 177.181 2043.38 185.121 2059.86 196.671C2076.35 208.221 2084.39 221.034 2083.99 235.11C2076.75 291.054 2055.24 348.984 2019.46 408.898C1983.68 468.813 1944.08 515.373 1900.66 548.578C1876.54 565.181 1854.63 570.956 1834.93 565.903C1814.83 560.85 1794.52 551.646 1774.02 538.292C1766.78 533.961 1759.14 529.449 1751.1 524.757C1741.05 534.863 1731 545.33 1720.95 556.158C1714.12 564.098 1706.88 572.039 1699.24 579.979C1689.99 587.92 1677.13 589.544 1660.65 584.852C1643.76 580.16 1629.49 572.219 1617.83 561.031C1606.17 550.203 1603.16 539.375 1608.78 528.547C1661.45 445.894 1694.82 382.55 1708.89 338.517C1722.56 294.483 1723.16 272.286 1710.7 271.925C1678.94 273.73 1615.22 347.721 1519.53 493.897ZM1805.98 452.751C1803.57 456 1802.36 461.053 1802.36 467.91C1802.36 474.768 1803.77 481.084 1806.58 486.859C1809.4 492.995 1813.62 496.604 1819.25 497.687C1824.88 499.131 1832.11 495.883 1840.96 487.942C1876.74 453.654 1906.69 414.312 1930.81 369.918C1954.93 325.884 1967.8 294.483 1969.41 275.715C1949.71 290.513 1922.77 316.861 1888.6 354.759C1854.43 392.656 1826.89 425.321 1805.98 452.751Z" fill="#9F56FD" fill-opacity="0.9"/>
<path d="M1184.24 487.401C1181.83 489.927 1178.21 490.469 1173.38 489.025C1168.56 487.942 1163.53 485.596 1158.31 481.987C1153.08 478.378 1149.06 474.588 1146.25 470.617C1143.03 467.008 1142.23 463.94 1143.83 461.414C1150.27 452.03 1157.5 441.021 1165.54 428.389C1184.44 398.792 1206.95 366.128 1233.08 330.396C1258.81 294.664 1287.16 262.18 1318.11 232.945C1349.07 204.07 1381.64 184.941 1415.81 175.557C1435.91 171.586 1459.43 173.211 1486.37 180.429C1513.3 187.648 1537.42 198.295 1558.73 212.372C1580.04 226.809 1592.1 242.329 1594.91 258.932C1598.13 298.273 1589.08 343.931 1567.78 395.905C1546.47 447.879 1518.93 494.619 1485.16 536.126C1450.99 577.633 1416.61 602.538 1382.04 610.839C1374.8 612.283 1367.97 611.922 1361.53 609.756C1355.1 607.591 1347.26 604.342 1338.02 600.011C1333.19 597.846 1327.56 595.319 1321.13 592.432C1319.52 594.597 1317.51 597.304 1315.1 600.553C1309.87 607.049 1304.65 613.366 1299.42 619.501C1294.19 625.998 1290.37 629.788 1287.96 630.871C1274.29 635.202 1259.42 633.036 1243.34 624.374C1226.85 615.712 1213.99 605.064 1204.74 592.432C1195.09 580.16 1193.48 570.776 1199.92 564.279C1231.28 537.931 1256.4 508.515 1275.3 476.031C1293.79 443.909 1300.83 419.185 1296.4 401.86C1301.63 396.807 1310.68 395.724 1323.54 398.612C1336.01 401.499 1348.07 407.635 1359.73 417.019C1370.98 426.764 1377.21 439.036 1378.42 453.834C1378.02 467.189 1374 483.25 1366.36 502.018C1358.32 520.787 1350.68 535.946 1343.44 547.496C1360.73 539.555 1379.42 519.163 1399.53 486.318C1419.23 453.473 1435.71 417.561 1448.98 378.58C1462.24 339.961 1467.87 307.477 1465.86 281.129C1463.45 255.142 1448.77 244.675 1421.84 249.728C1390.08 258.39 1358.12 279.866 1325.95 314.154C1293.79 348.442 1260.62 388.145 1226.45 433.261C1212.78 451.308 1198.71 469.354 1184.24 487.401Z" fill="#9F56FD" fill-opacity="0.9"/>
<path d="M839.295 487.401C836.882 489.927 833.264 490.469 828.44 489.025C823.615 487.942 818.59 485.596 813.364 481.987C808.137 478.378 804.117 474.588 801.303 470.618C798.086 467.008 797.282 463.94 798.89 461.414C805.323 452.03 812.56 441.021 820.6 428.389C839.496 398.792 862.009 366.128 888.141 330.396C913.871 294.664 942.215 262.18 973.171 232.945C1004.13 204.07 1036.69 184.941 1070.87 175.557C1090.97 171.586 1114.49 173.211 1141.42 180.429C1168.36 187.648 1192.48 198.295 1213.79 212.372C1235.1 226.809 1247.16 242.329 1249.97 258.932C1253.19 298.273 1244.14 343.931 1222.83 395.905C1201.53 447.879 1173.99 494.619 1140.22 536.126C1106.04 577.633 1071.67 602.538 1037.09 610.839C1029.86 612.283 1023.02 611.922 1016.59 609.756C1010.16 607.591 1002.32 604.342 993.072 600.011C988.248 597.846 982.619 595.319 976.187 592.432C974.578 594.597 972.568 597.304 970.156 600.553C964.93 607.049 959.703 613.366 954.477 619.501C949.25 625.998 945.431 629.788 943.019 630.871C929.35 635.202 914.475 633.036 898.393 624.374C881.91 615.712 869.045 605.064 859.798 592.432C850.149 580.16 848.541 570.776 854.974 564.279C886.332 537.931 911.459 508.515 930.355 476.031C948.848 443.909 955.884 419.185 951.462 401.86C956.688 396.807 965.734 395.724 978.599 398.612C991.062 401.499 1003.12 407.635 1014.78 417.019C1026.04 426.764 1032.27 439.036 1033.48 453.834C1033.07 467.189 1029.05 483.25 1021.42 502.018C1013.37 520.787 1005.74 535.946 998.499 547.496C1015.79 539.555 1034.48 519.163 1054.58 486.318C1074.28 453.473 1090.77 417.561 1104.03 378.58C1117.3 339.961 1122.93 307.477 1120.92 281.129C1118.51 255.142 1103.83 244.675 1076.9 249.728C1045.13 258.39 1013.17 279.866 981.011 314.154C948.848 348.442 915.681 388.145 881.508 433.261C867.839 451.308 853.768 469.354 839.295 487.401Z" fill="#9F56FD" fill-opacity="0.9"/>
<path d="M218.155 643.864C171.118 622.569 134.332 598.748 107.797 572.4C80.8613 546.413 72.2175 506.891 81.8663 453.834C87.8968 428.569 100.561 391.213 119.858 341.765C137.548 295.566 154.232 247.743 169.911 198.295C185.591 149.209 193.43 107.521 193.43 73.2328C193.028 38.5835 178.354 19.9955 149.408 17.469C159.458 1.58806 177.952 -3.46492 204.888 2.30998C231.422 7.72392 255.343 22.7026 276.651 47.2458C297.959 71.7891 305.195 104.453 298.36 145.238C284.289 200.1 262.781 261.639 233.834 329.855C216.547 371.723 203.28 406.733 194.033 434.885C181.168 472.783 178.957 504.184 187.4 529.088C195.842 554.353 219.562 573.483 258.559 586.476C259.364 519.704 283.083 441.021 329.719 350.428C375.953 259.834 428.418 197.393 487.115 163.105C503.196 155.886 523.9 154.984 549.228 160.398C574.154 165.812 597.271 175.376 618.579 189.092C639.485 202.807 652.149 218.327 656.571 235.652C660.189 264.526 656.169 299.717 644.51 341.224C657.777 327.148 672.652 309.823 689.136 289.25C720.896 247.743 757.481 208.582 798.89 171.767C810.147 164.187 826.028 162.563 846.531 166.894C867.035 171.226 885.528 179.346 902.012 191.257C918.897 203.168 927.139 216.161 926.737 230.238C919.5 287.265 897.589 346.277 861.004 407.274C824.822 468.271 784.417 515.734 739.792 549.661C715.268 566.625 692.955 572.4 672.854 566.986C652.35 561.933 631.846 552.549 611.343 538.833C603.704 534.502 595.864 529.991 587.824 525.299C584.205 529.991 579.984 535.766 575.16 542.623C570.335 549.12 565.511 555.436 560.687 561.572C555.862 567.708 551.641 572.58 548.022 576.19C537.972 584.13 524.705 585.394 508.221 579.98C491.336 574.927 477.265 566.806 466.008 555.617C454.349 544.428 451.535 533.42 457.565 522.592C506.211 448.962 535.559 385.799 545.61 333.103C555.259 280.768 554.254 249.728 542.595 239.983C528.926 232.403 507.618 244.675 478.672 276.798C449.324 309.282 421.583 350.428 395.451 400.236C369.319 450.044 353.841 497.687 349.017 543.165C343.79 588.642 358.666 620.765 393.642 639.533C403.693 645.308 406.708 654.512 402.688 667.144C398.668 679.777 390.828 692.229 379.169 704.501C367.108 717.133 354.645 725.976 341.78 731.029C328.513 736.443 317.859 734.458 309.818 725.074C303.788 717.133 298.763 710.276 294.742 704.501C287.908 693.673 279.867 683.928 270.62 675.265C260.972 666.603 243.483 656.136 218.155 643.864ZM648.128 451.127C646.118 454.376 644.912 459.429 644.51 466.286C643.706 473.505 644.51 480.182 646.922 486.318C648.932 492.815 652.551 496.605 657.777 497.687C663.004 499.131 670.24 495.883 679.487 487.942C715.67 452.932 746.023 412.869 770.547 367.752C795.071 322.636 808.137 290.513 809.745 271.384C790.448 286.543 764.115 313.252 730.746 351.51C696.975 390.13 669.436 423.336 648.128 451.127Z" fill="#9F56FD" fill-opacity="0.9"/>
<path d="M-309.512 332.02C-317.553 332.742 -322.779 329.313 -325.191 321.734C-327.603 314.515 -327.603 306.936 -325.191 298.995C-323.181 291.415 -319.362 287.084 -313.733 286.002C-296.446 283.836 -279.561 283.295 -263.077 284.377C-246.594 285.46 -228.1 289.069 -207.597 295.205C-205.989 292.318 -204.179 289.069 -202.169 285.46C-193.325 267.053 -180.058 245.216 -162.368 219.951C-145.081 194.686 -123.371 175.015 -97.2388 160.939C-79.1475 153.36 -56.6336 152.457 -29.6976 158.232C-3.16338 164.007 21.5615 174.113 44.4774 188.55C67.3931 203.348 82.2684 220.132 89.103 238.9C95.9376 264.887 95.3343 293.04 87.2937 323.358C79.253 354.037 67.5942 382.55 52.317 408.898C37.4419 435.246 22.3655 454.917 7.08836 467.911C1.86204 472.603 -3.96755 476.934 -10.4002 480.904C-13.2144 482.709 -16.0283 484.513 -18.8426 486.318C-15.6262 501.477 -13.8174 516.636 -13.4153 531.795C-13.4153 546.954 -17.2344 561.392 -24.8731 575.107C-36.1299 590.627 -58.0405 598.387 -90.6052 598.387C-123.572 598.748 -155.735 590.086 -187.093 572.4C-218.452 554.714 -237.548 527.103 -244.383 489.566C-247.599 463.94 -247.197 438.856 -243.177 414.312C-239.558 390.13 -234.131 365.406 -226.894 340.141C-234.935 336.171 -246.594 333.103 -261.871 330.937C-277.148 329.133 -293.029 329.494 -309.512 332.02ZM-10.4002 211.289C-40.1507 227.17 -62.6643 245.938 -77.9414 267.594C-93.6206 289.25 -106.687 312.53 -117.139 337.434C-89.3992 353.676 -68.2925 375.151 -53.8194 401.86C-48.1909 396.085 -40.7534 381.107 -31.5066 356.924C-22.6619 333.103 -15.4253 307.296 -9.79691 279.505C-4.5706 251.713 -4.77177 228.974 -10.4002 211.289ZM-135.231 398.071C-140.859 411.786 -143.875 428.028 -144.277 446.796C-145.081 465.926 -144.076 483.611 -141.261 499.853C-138.447 516.456 -134.628 528.006 -129.803 534.502C-106.084 503.101 -107.893 457.624 -135.231 398.071Z" fill="#9F56FD" fill-opacity="0.9"/>
</g>
</svg>
