<svg width="356" height="322" viewBox="0 0 356 322" fill="none" xmlns="http://www.w3.org/2000/svg">
<path d="M177.97 0C152.67 0 128.522 11.9811 106.184 35.6212C91.8543 50.8357 78.2919 71.0144 66.8006 94.2252C46.2729 97.0025 29.9949 100.665 18.5804 105.146C12.892 107.359 8.08736 111.004 4.78053 115.617C1.47369 120.229 -0.185037 125.599 0.016393 131.041C0.64542 150.267 5.92311 170.284 9.83535 183.688C13.2106 195.333 24.4104 203.974 38.0342 205.463V205.704C39.819 237.093 55.3443 266.677 81.3931 288.328C107.442 309.978 142.017 322.035 177.954 322L177.908 321.987C213.848 322.007 248.423 309.949 274.485 288.307C300.546 266.665 316.102 237.093 317.936 205.704V205.49C324.606 204.763 330.87 202.291 335.908 198.399C340.945 194.506 344.52 189.374 346.165 183.674C350.078 170.298 355.355 150.28 355.984 130.947C356.182 125.513 354.52 120.151 351.213 115.548C347.906 110.945 343.104 107.309 337.42 105.106C325.684 100.544 309.421 96.8415 289.031 94.1581C277.555 70.9876 263.962 50.8492 249.679 35.6481C227.402 11.9945 203.269 0 177.97 0ZM177.847 11.109C199.51 11.109 220.59 21.8021 240.504 42.9065C255.048 58.3357 268.795 79.2656 280.163 103.442C298.666 105.629 317.721 108.984 331.253 114.256C338.786 117.168 343.526 123.782 343.281 130.96C342.698 149.019 337.589 168.325 333.922 181.112C332.723 185.304 329.969 189.031 326.092 191.711C322.214 194.391 317.431 195.872 312.489 195.924H312.275C310.035 195.924 307.81 195.789 305.57 195.749C306.103 210.814 303.192 225.821 297.009 239.89C287.609 260.812 271.217 278.771 249.972 291.424C228.726 304.078 203.613 310.838 177.908 310.824H177.878C152.182 310.82 127.081 304.04 105.843 291.392C84.6039 278.743 68.2094 260.798 58.7921 239.89C52.5355 225.843 49.5468 210.846 50.001 195.776C47.8531 195.816 45.7359 195.95 43.588 195.95H43.4806C38.5442 195.893 33.7681 194.409 29.8968 191.73C26.0256 189.051 23.2766 185.327 22.0784 181.138C18.2735 168.325 13.226 149.126 12.6276 131.094C12.4991 127.566 13.5744 124.085 15.7165 121.094C17.8586 118.102 20.9706 115.736 24.6558 114.297C37.4972 109.319 56.4907 105.844 75.4843 103.523C86.9602 79.3461 100.676 58.3893 115.19 42.9333C135.104 21.8021 156.184 11.109 177.847 11.109ZM177.847 21.4398C168.682 21.5871 159.728 23.8654 151.903 28.0408C123.812 42.2357 102.041 75.7773 88.8779 102.208C105.693 100.625 121.664 99.7797 131.652 99.9005C139.937 99.8334 147.914 102.718 153.744 107.87C161.342 104.752 169.609 103.078 178 102.959C186.396 103.071 194.669 104.741 202.272 107.857C205.132 105.323 208.542 103.315 212.301 101.948C216.06 100.582 220.094 99.886 224.165 99.9005C230.762 99.8066 247.715 100.383 266.754 102.074C253.683 75.8041 231.882 42.2222 203.79 28.0408C195.957 23.8732 186.999 21.5999 177.832 21.4532L177.847 21.4398ZM227.172 115.96V116.014C223.761 115.949 220.439 116.965 217.817 118.873C215.195 120.781 213.45 123.454 212.904 126.398C211.385 133.509 210.388 140.674 209.897 147.878C209.789 156.116 213.18 161.751 219.884 164.649C239.093 172.136 260.694 176.697 285.395 178.522C282.495 160.047 276.527 138.836 268.335 118.214C251.658 116.577 235.809 115.839 227.172 115.96ZM128.645 115.974C115.09 116.079 101.551 116.791 88.0802 118.107C79.9028 138.769 73.904 160.007 71.0811 178.482C95.4751 176.604 116.847 172.042 135.917 164.609C142.667 161.738 146.043 156.076 145.935 147.811C145.442 140.607 144.427 133.437 142.898 126.345C142.354 123.4 140.609 120.728 137.986 118.821C135.363 116.915 132.039 115.903 128.629 115.974H128.645ZM75.0547 119.542C65.4812 120.75 55.9998 122.36 47.5923 124.426L70.7436 131.577C72.0783 127.566 73.5512 123.554 75.0547 119.542ZM281.452 119.677C282.925 123.567 284.337 127.472 285.656 131.376L308.055 124.466C299.308 122.397 290.423 120.798 281.452 119.677ZM177.954 124.238C175.345 124.233 172.793 124.906 170.621 126.17C165.972 128.854 164.361 133.965 164.821 137.816C166.693 153.098 165.895 169.855 145.966 178.2L145.736 178.307C136.213 182.245 126.303 185.419 116.126 187.793C98.298 191.925 80.0562 194.501 61.6917 195.481C60.7584 219.459 69.5567 242.953 86.5291 261.802C103.502 280.652 127.553 293.643 154.426 298.474C181.3 303.305 209.261 299.666 233.36 288.2C257.459 276.733 276.142 258.18 286.101 235.825C291.789 222.967 294.431 209.232 293.864 195.454C275.592 194.456 257.478 191.885 239.783 187.78C229.596 185.432 219.685 182.279 210.157 178.388L209.943 178.227C189.952 169.868 189.2 153.124 191.072 137.843C191.532 133.992 189.921 128.88 185.272 126.17C183.107 124.903 180.56 124.226 177.954 124.225V124.238ZM34.4748 149.395C36.2085 159.135 38.6325 168.473 40.719 175.557C41.3941 177.838 43.7261 179.448 46.3956 179.448C50.8295 179.434 54.8952 179.126 59.1296 178.951C60.2802 170.74 62.152 161.912 64.4993 152.789C54.4849 151.7 44.4766 150.568 34.4748 149.395ZM321.296 149.395C309.85 150.723 298.19 152.051 292.008 152.695C294.386 161.859 296.227 170.727 297.408 178.992C301.397 179.126 305.202 179.448 309.344 179.475C310.647 179.466 311.91 179.081 312.937 178.38C313.963 177.679 314.696 176.701 315.021 175.597C317.107 168.486 319.562 159.148 321.296 149.395Z" fill="white"/>
</svg>
